<mxfile host="app.diagrams.net" modified="2024-01-31T17:00:04.085Z" agent="Mozilla/5.0 (Windows NT 10.0; Win64; x64) AppleWebKit/537.36 (KHTML, like Gecko) Chrome/120.0.0.0 Safari/537.36" etag="dMxJgxYE0VdDK7LRHvE1" version="23.0.2" type="github">
  <diagram name="Page-1" id="p7eeYsSdSYPvVPsLCZ8w">
    <mxGraphModel dx="2759" dy="1011" grid="1" gridSize="10" guides="1" tooltips="1" connect="1" arrows="1" fold="1" page="1" pageScale="1" pageWidth="850" pageHeight="1100" math="0" shadow="0">
      <root>
        <mxCell id="0" />
        <mxCell id="1" parent="0" />
        <mxCell id="5Lx53EyEU3FaDKCMBaVy-2" value="&lt;span style=&quot;font-weight: normal;&quot;&gt;&lt;i&gt;&amp;lt;&amp;lt;abstract&amp;gt;&amp;gt;&lt;/i&gt;&lt;br&gt;&lt;/span&gt;Module" style="swimlane;fontStyle=1;align=center;verticalAlign=top;childLayout=stackLayout;horizontal=1;startSize=40;horizontalStack=0;resizeParent=1;resizeParentMax=0;resizeLast=0;collapsible=1;marginBottom=0;whiteSpace=wrap;html=1;" vertex="1" parent="1">
          <mxGeometry x="350" y="30" width="250" height="880" as="geometry" />
        </mxCell>
        <mxCell id="5Lx53EyEU3FaDKCMBaVy-3" value="+ configs_reqd &lt;span style=&quot;&quot;&gt;&lt;span style=&quot;&quot;&gt;&amp;nbsp;&amp;nbsp;&amp;nbsp;&amp;nbsp;&lt;/span&gt;&lt;/span&gt;(list[VarTemplate]): &lt;br&gt;&lt;span style=&quot;&quot;&gt;&lt;span style=&quot;&quot;&gt;&amp;nbsp;&amp;nbsp;&amp;nbsp;&amp;nbsp;&lt;/span&gt;&lt;/span&gt;- configurations required by module&lt;br&gt;&amp;nbsp;&lt;br&gt;&lt;br&gt;+ inputs_reqd &lt;span style=&quot;&quot;&gt;&lt;span style=&quot;&quot;&gt;&amp;nbsp;&amp;nbsp;&amp;nbsp;&amp;nbsp;&lt;/span&gt;&lt;span style=&quot;&quot;&gt;&lt;span style=&quot;&quot;&gt;&amp;nbsp;&amp;nbsp;&amp;nbsp;&amp;nbsp;&lt;/span&gt;&lt;/span&gt;&lt;/span&gt;(list[VarTemplate]):&lt;br&gt;&lt;span style=&quot;&quot;&gt;&lt;span style=&quot;&quot;&gt;&amp;nbsp;&amp;nbsp;&amp;nbsp;&amp;nbsp;&lt;/span&gt;&lt;/span&gt;- inputs required by execute function&lt;br&gt;&lt;br&gt;&lt;br&gt;+ outputs_avail&amp;nbsp;&lt;span style=&quot;&quot;&gt;&lt;span style=&quot;&quot;&gt;&amp;nbsp;&amp;nbsp;&amp;nbsp;&amp;nbsp;&lt;/span&gt;&lt;/span&gt;(list[VarTemplate]):&lt;br&gt;&lt;span style=&quot;&quot;&gt;&lt;span style=&quot;&quot;&gt;&amp;nbsp;&amp;nbsp;&amp;nbsp;&amp;nbsp;&lt;/span&gt;&lt;/span&gt;- outputs available from the module&lt;br&gt;&lt;br&gt;&lt;br&gt;+ configs&lt;span style=&quot;&quot;&gt;&lt;span style=&quot;&quot;&gt;&amp;nbsp;&amp;nbsp;&amp;nbsp;&amp;nbsp;&lt;/span&gt;&lt;/span&gt;&lt;span style=&quot;&quot;&gt;&lt;span style=&quot;&quot;&gt;&amp;nbsp;&amp;nbsp;&amp;nbsp;&amp;nbsp;&lt;/span&gt;&lt;/span&gt;&lt;span style=&quot;&quot;&gt;&lt;span style=&quot;&quot;&gt;&amp;nbsp;&amp;nbsp;&amp;nbsp;&amp;nbsp;&lt;/span&gt;&lt;/span&gt;(dict[str, any]):&lt;br&gt;&lt;span style=&quot;&quot;&gt;&lt;span style=&quot;&quot;&gt;&amp;nbsp;&amp;nbsp;&amp;nbsp;&amp;nbsp;&lt;/span&gt;&lt;/span&gt;- given configurations to the module" style="text;strokeColor=none;fillColor=none;align=left;verticalAlign=top;spacingLeft=4;spacingRight=4;overflow=hidden;rotatable=0;points=[[0,0.5],[1,0.5]];portConstraint=eastwest;whiteSpace=wrap;html=1;" vertex="1" parent="5Lx53EyEU3FaDKCMBaVy-2">
          <mxGeometry y="40" width="250" height="230" as="geometry" />
        </mxCell>
        <mxCell id="5Lx53EyEU3FaDKCMBaVy-4" value="" style="line;strokeWidth=1;fillColor=none;align=left;verticalAlign=middle;spacingTop=-1;spacingLeft=3;spacingRight=3;rotatable=0;labelPosition=right;points=[];portConstraint=eastwest;strokeColor=inherit;" vertex="1" parent="5Lx53EyEU3FaDKCMBaVy-2">
          <mxGeometry y="270" width="250" height="8" as="geometry" />
        </mxCell>
        <mxCell id="5Lx53EyEU3FaDKCMBaVy-5" value="+ __init__()&lt;br&gt;&lt;br&gt;+ __init__(configs)&lt;br&gt;&lt;br&gt;+ properties (setters)&lt;br style=&quot;border-color: var(--border-color);&quot;&gt;&#x9;=&amp;gt; configs&amp;nbsp;&lt;br style=&quot;border-color: var(--border-color);&quot;&gt;&lt;br&gt;+ def check_valid_configs(configs: dict) -&amp;gt; bool&lt;br&gt;&lt;br&gt;+ def check_valid_inputs(inputs: dict) -&amp;gt; bool&lt;br&gt;&lt;br&gt;+ def check_outputs_available(outputs: dict) -&amp;gt; bool&lt;br&gt;&lt;br&gt;@abstractmethod&lt;br&gt;+ def setup() -&amp;gt; None:&lt;br&gt;&lt;span style=&quot;&quot;&gt;&lt;span style=&quot;white-space: pre;&quot;&gt;&amp;nbsp;&amp;nbsp;&amp;nbsp;&amp;nbsp;&lt;/span&gt;&lt;/span&gt;- any setup / connection / required&lt;br&gt;&lt;span style=&quot;&quot;&gt;&lt;span style=&quot;white-space: pre;&quot;&gt;&amp;nbsp;&amp;nbsp;&amp;nbsp;&amp;nbsp;&lt;/span&gt;&lt;/span&gt;- Raise SetupError&lt;br&gt;&lt;br&gt;@abstractmethod&lt;br&gt;+ def execute(inputs: dict) -&amp;gt; dict:&lt;br&gt;&lt;span style=&quot;&quot;&gt;&lt;span style=&quot;white-space: pre;&quot;&gt;&amp;nbsp;&amp;nbsp;&amp;nbsp;&amp;nbsp;&lt;/span&gt;&lt;/span&gt;- executes the main function of the module&lt;br&gt;&lt;span style=&quot;&quot;&gt;&lt;span style=&quot;white-space: pre;&quot;&gt;&amp;nbsp;&amp;nbsp;&amp;nbsp;&amp;nbsp;&lt;/span&gt;&lt;/span&gt;- inputs is a dictionary where the key is the&amp;nbsp;&lt;br&gt;&lt;span style=&quot;&quot;&gt;&lt;span style=&quot;white-space: pre;&quot;&gt;&amp;nbsp;&amp;nbsp;&amp;nbsp;&amp;nbsp;&lt;/span&gt;&lt;/span&gt;input variable name&lt;br&gt;&lt;span style=&quot;&quot;&gt;&lt;span style=&quot;white-space: pre;&quot;&gt;&amp;nbsp;&amp;nbsp;&amp;nbsp;&amp;nbsp;&lt;/span&gt;&lt;/span&gt;- expects valid inputs&lt;br&gt;&lt;span style=&quot;&quot;&gt;&lt;span style=&quot;&quot;&gt;&lt;span style=&quot;white-space: pre;&quot;&gt;&amp;nbsp;&amp;nbsp;&amp;nbsp;&amp;nbsp;&lt;/span&gt;&lt;/span&gt;- returns a dictionary of the outputs where &lt;br&gt;&lt;span style=&quot;&quot;&gt;&lt;span style=&quot;white-space: pre;&quot;&gt;&amp;nbsp;&amp;nbsp;&amp;nbsp;&amp;nbsp;&lt;/span&gt;&lt;/span&gt;the key is the output variable name&lt;br&gt;&lt;span style=&quot;&quot;&gt;&lt;span style=&quot;white-space: pre;&quot;&gt;&amp;nbsp;&amp;nbsp;&amp;nbsp;&amp;nbsp;&lt;/span&gt;&lt;/span&gt;- Raise ExecutionError&lt;span style=&quot;white-space: pre;&quot;&gt;&amp;nbsp;&amp;nbsp;&amp;nbsp;&amp;nbsp;&lt;/span&gt;&lt;/span&gt;&amp;nbsp;&lt;br&gt;&lt;br&gt;&lt;br&gt;@abstractmethod&lt;br&gt;+ def teardown() -&amp;gt; None:&lt;br&gt;&lt;span style=&quot;&quot;&gt;&lt;span style=&quot;white-space: pre;&quot;&gt;&amp;nbsp;&amp;nbsp;&amp;nbsp;&amp;nbsp;&lt;/span&gt;&lt;/span&gt;- any teardown required" style="text;strokeColor=none;fillColor=none;align=left;verticalAlign=top;spacingLeft=4;spacingRight=4;overflow=hidden;rotatable=0;points=[[0,0.5],[1,0.5]];portConstraint=eastwest;whiteSpace=wrap;html=1;" vertex="1" parent="5Lx53EyEU3FaDKCMBaVy-2">
          <mxGeometry y="278" width="250" height="602" as="geometry" />
        </mxCell>
        <mxCell id="5Lx53EyEU3FaDKCMBaVy-6" value="VarTemplate" style="swimlane;fontStyle=1;align=center;verticalAlign=top;childLayout=stackLayout;horizontal=1;startSize=26;horizontalStack=0;resizeParent=1;resizeParentMax=0;resizeLast=0;collapsible=1;marginBottom=0;whiteSpace=wrap;html=1;" vertex="1" parent="1">
          <mxGeometry x="40" y="131" width="240" height="146" as="geometry" />
        </mxCell>
        <mxCell id="5Lx53EyEU3FaDKCMBaVy-7" value="+ name: string&lt;br&gt;+ var_type: VarType&lt;br&gt;+ json_schema: dict" style="text;strokeColor=none;fillColor=none;align=left;verticalAlign=top;spacingLeft=4;spacingRight=4;overflow=hidden;rotatable=0;points=[[0,0.5],[1,0.5]];portConstraint=eastwest;whiteSpace=wrap;html=1;" vertex="1" parent="5Lx53EyEU3FaDKCMBaVy-6">
          <mxGeometry y="26" width="240" height="64" as="geometry" />
        </mxCell>
        <mxCell id="5Lx53EyEU3FaDKCMBaVy-8" value="" style="line;strokeWidth=1;fillColor=none;align=left;verticalAlign=middle;spacingTop=-1;spacingLeft=3;spacingRight=3;rotatable=0;labelPosition=right;points=[];portConstraint=eastwest;strokeColor=inherit;" vertex="1" parent="5Lx53EyEU3FaDKCMBaVy-6">
          <mxGeometry y="90" width="240" height="8" as="geometry" />
        </mxCell>
        <mxCell id="5Lx53EyEU3FaDKCMBaVy-9" value="+ validate(var: any) -&amp;gt; bool:&lt;br&gt;&lt;span style=&quot;white-space: pre;&quot;&gt;&#x9;&lt;/span&gt;returns if var is valid for this variable" style="text;strokeColor=none;fillColor=none;align=left;verticalAlign=top;spacingLeft=4;spacingRight=4;overflow=hidden;rotatable=0;points=[[0,0.5],[1,0.5]];portConstraint=eastwest;whiteSpace=wrap;html=1;" vertex="1" parent="5Lx53EyEU3FaDKCMBaVy-6">
          <mxGeometry y="98" width="240" height="48" as="geometry" />
        </mxCell>
        <mxCell id="5Lx53EyEU3FaDKCMBaVy-19" value="&lt;span style=&quot;font-weight: normal;&quot;&gt;&amp;lt;&amp;lt;enumeration&amp;gt;&amp;gt;&lt;/span&gt;&lt;br&gt;VarType" style="swimlane;fontStyle=1;align=center;verticalAlign=top;childLayout=stackLayout;horizontal=1;startSize=40;horizontalStack=0;resizeParent=1;resizeParentMax=0;resizeLast=0;collapsible=1;marginBottom=0;whiteSpace=wrap;html=1;" vertex="1" parent="1">
          <mxGeometry x="-480" y="40" width="240" height="328" as="geometry" />
        </mxCell>
        <mxCell id="5Lx53EyEU3FaDKCMBaVy-20" value="+ STRING&lt;br&gt;+ INTEGER&lt;br style=&quot;border-color: var(--border-color);&quot;&gt;+ FLOAT&lt;br&gt;+ BOOL&lt;br&gt;+ NAME&lt;br&gt;+ IP_ADDRESS&lt;br&gt;+ POINT_XYZ&lt;br&gt;+ POINT_IJ&lt;br&gt;+ POSE&lt;br&gt;+ POINT_CLOUD&lt;br&gt;+ CAMERA_MATRIX&lt;br&gt;+ CAMERA_POSE&lt;br&gt;+ SEGMENTATION_MASK" style="text;strokeColor=none;fillColor=none;align=left;verticalAlign=top;spacingLeft=4;spacingRight=4;overflow=hidden;rotatable=0;points=[[0,0.5],[1,0.5]];portConstraint=eastwest;whiteSpace=wrap;html=1;" vertex="1" parent="5Lx53EyEU3FaDKCMBaVy-19">
          <mxGeometry y="40" width="240" height="210" as="geometry" />
        </mxCell>
        <mxCell id="5Lx53EyEU3FaDKCMBaVy-21" value="" style="line;strokeWidth=1;fillColor=none;align=left;verticalAlign=middle;spacingTop=-1;spacingLeft=3;spacingRight=3;rotatable=0;labelPosition=right;points=[];portConstraint=eastwest;strokeColor=inherit;" vertex="1" parent="5Lx53EyEU3FaDKCMBaVy-19">
          <mxGeometry y="250" width="240" height="8" as="geometry" />
        </mxCell>
        <mxCell id="5Lx53EyEU3FaDKCMBaVy-22" value="+ get_schema(var_type: VarType) -&amp;gt; dict" style="text;strokeColor=none;fillColor=none;align=left;verticalAlign=top;spacingLeft=4;spacingRight=4;overflow=hidden;rotatable=0;points=[[0,0.5],[1,0.5]];portConstraint=eastwest;whiteSpace=wrap;html=1;" vertex="1" parent="5Lx53EyEU3FaDKCMBaVy-19">
          <mxGeometry y="258" width="240" height="70" as="geometry" />
        </mxCell>
        <mxCell id="5Lx53EyEU3FaDKCMBaVy-24" value="VarType:&lt;br&gt;&lt;br&gt;- &lt;b&gt;NAME&lt;/b&gt;:&lt;br&gt;&lt;ul&gt;&lt;li&gt;type: string&lt;/li&gt;&lt;li&gt;cannot be an empty string&lt;/li&gt;&lt;li&gt;cannot start with a number&lt;/li&gt;&lt;li&gt;must be at least 3 letters long&lt;/li&gt;&lt;li&gt;exclude all symbols except underscore&lt;br&gt;&lt;br&gt;&lt;/li&gt;&lt;/ul&gt;&lt;div&gt;- &lt;b&gt;IP ADDRESS&lt;/b&gt;&lt;/div&gt;&lt;div&gt;&lt;ul&gt;&lt;li&gt;type: string&lt;/li&gt;&lt;li&gt;format:&amp;nbsp; X.X.X.X where X are numbers between 0-255&lt;br&gt;&lt;br&gt;&lt;/li&gt;&lt;/ul&gt;&lt;div&gt;- &lt;b&gt;POINT_XYZ&lt;/b&gt;&lt;/div&gt;&lt;/div&gt;&lt;div&gt;&lt;ul&gt;&lt;li&gt;type: list[float]&lt;/li&gt;&lt;li&gt;array size: 3&lt;br&gt;&lt;br&gt;&lt;/li&gt;&lt;/ul&gt;&lt;/div&gt;&lt;div&gt;- &lt;b&gt;POINT_IJ&lt;/b&gt;&lt;/div&gt;&lt;div&gt;&lt;ul&gt;&lt;li&gt;type: list[int]&lt;/li&gt;&lt;li&gt;array size: 2&lt;/li&gt;&lt;li&gt;no negative integers&lt;/li&gt;&lt;/ul&gt;&lt;div&gt;&lt;br&gt;&lt;/div&gt;&lt;/div&gt;&lt;div&gt;- &lt;b&gt;POSE&lt;/b&gt;&lt;/div&gt;&lt;div&gt;&lt;ul&gt;&lt;li&gt;type: list[float]&lt;/li&gt;&lt;li&gt;array size: 6&lt;/li&gt;&lt;/ul&gt;&lt;div&gt;&lt;br&gt;&lt;/div&gt;&lt;div&gt;- &lt;b&gt;POINT_CLOUD&lt;/b&gt;&lt;/div&gt;&lt;div&gt;&lt;ul&gt;&lt;li&gt;type: np.ndarray&lt;/li&gt;&lt;li&gt;shape: (1024, 1280, 3)&lt;br&gt;&lt;br&gt;&lt;/li&gt;&lt;/ul&gt;&lt;div&gt;- &lt;b&gt;CAMERA_MATRIX&lt;/b&gt;&lt;/div&gt;&lt;/div&gt;&lt;div&gt;&lt;ul&gt;&lt;li&gt;type: np.ndarray&lt;/li&gt;&lt;li&gt;shape: (4, 4)&lt;/li&gt;&lt;/ul&gt;&lt;div&gt;&lt;br&gt;&lt;/div&gt;&lt;/div&gt;&lt;div&gt;-&lt;b&gt;&amp;nbsp;CAMERA_POSE&lt;/b&gt;&lt;/div&gt;&lt;div&gt;&lt;ul&gt;&lt;li&gt;type: np.ndarray&lt;/li&gt;&lt;li&gt;shape: (4, 4)&lt;/li&gt;&lt;/ul&gt;&lt;div&gt;&lt;br&gt;&lt;/div&gt;&lt;/div&gt;&lt;div&gt;- &lt;b&gt;SEGMENTATION_MASK&lt;/b&gt;&lt;/div&gt;&lt;div&gt;&lt;ul&gt;&lt;li&gt;type: np.ndarray&lt;/li&gt;&lt;li&gt;shape: (M, N)&lt;/li&gt;&lt;li&gt;values range in [0,1]&lt;/li&gt;&lt;/ul&gt;&lt;div&gt;&lt;br&gt;&lt;/div&gt;&lt;div&gt;&lt;br&gt;&lt;/div&gt;&lt;/div&gt;&lt;div&gt;&lt;br&gt;&lt;/div&gt;&lt;div&gt;&lt;br&gt;&lt;/div&gt;&lt;/div&gt;" style="rounded=0;whiteSpace=wrap;html=1;align=left;" vertex="1" parent="1">
          <mxGeometry x="-830" y="40" width="290" height="1040" as="geometry" />
        </mxCell>
        <mxCell id="5Lx53EyEU3FaDKCMBaVy-30" style="edgeStyle=orthogonalEdgeStyle;rounded=0;orthogonalLoop=1;jettySize=auto;html=1;exitX=0;exitY=0.5;exitDx=0;exitDy=0;entryX=1;entryY=0.5;entryDx=0;entryDy=0;" edge="1" parent="1" source="5Lx53EyEU3FaDKCMBaVy-3" target="5Lx53EyEU3FaDKCMBaVy-7">
          <mxGeometry relative="1" as="geometry" />
        </mxCell>
        <mxCell id="5Lx53EyEU3FaDKCMBaVy-31" value="&lt;p style=&quot;margin:0px;margin-top:4px;text-align:center;&quot;&gt;&lt;i&gt;&amp;lt;&amp;lt;Interface&amp;gt;&amp;gt;&lt;/i&gt;&lt;br&gt;&lt;b&gt;CommunicationInterface&lt;/b&gt;&lt;/p&gt;&lt;hr size=&quot;1&quot;&gt;&lt;p style=&quot;margin:0px;margin-left:4px;&quot;&gt;&lt;br&gt;&lt;/p&gt;&lt;hr size=&quot;1&quot;&gt;&lt;p style=&quot;margin:0px;margin-left:4px;&quot;&gt;@abstractmethod&lt;br&gt;&lt;/p&gt;&lt;p style=&quot;margin:0px;margin-left:4px;&quot;&gt;+ def connect() -&amp;gt; None&lt;br&gt;&lt;br&gt;&lt;br&gt;@abstractmethod&lt;br&gt;+ def disconnect() -&amp;gt; None&lt;br&gt;&lt;br&gt;&lt;/p&gt;" style="verticalAlign=top;align=left;overflow=fill;fontSize=12;fontFamily=Helvetica;html=1;whiteSpace=wrap;" vertex="1" parent="1">
          <mxGeometry x="750" y="740" width="190" height="180" as="geometry" />
        </mxCell>
        <mxCell id="5Lx53EyEU3FaDKCMBaVy-37" style="edgeStyle=orthogonalEdgeStyle;rounded=0;orthogonalLoop=1;jettySize=auto;html=1;exitX=1;exitY=0.25;exitDx=0;exitDy=0;dashed=1;endArrow=block;endFill=0;entryX=0.25;entryY=1;entryDx=0;entryDy=0;" edge="1" parent="1" source="5Lx53EyEU3FaDKCMBaVy-48" target="5Lx53EyEU3FaDKCMBaVy-31">
          <mxGeometry relative="1" as="geometry">
            <mxPoint x="537.5" y="940.0000000000002" as="sourcePoint" />
            <mxPoint x="820" y="1010" as="targetPoint" />
            <Array as="points">
              <mxPoint x="600" y="1040" />
              <mxPoint x="798" y="1040" />
            </Array>
          </mxGeometry>
        </mxCell>
        <mxCell id="5Lx53EyEU3FaDKCMBaVy-36" style="edgeStyle=orthogonalEdgeStyle;rounded=0;orthogonalLoop=1;jettySize=auto;html=1;exitX=0.5;exitY=0;exitDx=0;exitDy=0;entryX=0.499;entryY=1.005;entryDx=0;entryDy=0;entryPerimeter=0;endArrow=block;endFill=0;" edge="1" parent="1" source="5Lx53EyEU3FaDKCMBaVy-48" target="5Lx53EyEU3FaDKCMBaVy-5">
          <mxGeometry relative="1" as="geometry">
            <mxPoint x="475" y="940.0000000000002" as="sourcePoint" />
            <Array as="points">
              <mxPoint x="475" y="970" />
            </Array>
          </mxGeometry>
        </mxCell>
        <mxCell id="5Lx53EyEU3FaDKCMBaVy-48" value="&lt;p style=&quot;margin:0px;margin-top:4px;text-align:center;&quot;&gt;&lt;i&gt;&amp;lt;&amp;lt;abstract&amp;gt;&amp;gt;&lt;/i&gt;&lt;br&gt;&lt;b&gt;AbstractCamera&lt;/b&gt;&lt;/p&gt;&lt;hr size=&quot;1&quot;&gt;&lt;p style=&quot;margin:0px;margin-left:4px;&quot;&gt;+ has_img: bool&lt;/p&gt;&lt;p style=&quot;margin:0px;margin-left:4px;&quot;&gt;+ is_rgb: bool&lt;/p&gt;&lt;p style=&quot;margin:0px;margin-left:4px;&quot;&gt;+ has_pcd: bool&lt;br&gt;+ has_texture_img: Type&lt;/p&gt;&lt;p style=&quot;margin:0px;margin-left:4px;&quot;&gt;+ img: np.ndarray&lt;/p&gt;&lt;hr size=&quot;1&quot;&gt;&lt;p style=&quot;border-color: var(--border-color); margin: 0px 0px 0px 4px;&quot;&gt;@ abstractmethod&lt;/p&gt;&lt;p style=&quot;border-color: var(--border-color); margin: 0px 0px 0px 4px;&quot;&gt;+ def capture() -&amp;gt; None&lt;/p&gt;&lt;p style=&quot;border-color: var(--border-color); margin: 0px 0px 0px 4px;&quot;&gt;&lt;br&gt;&lt;/p&gt;&lt;p style=&quot;border-color: var(--border-color); margin: 0px 0px 0px 4px;&quot;&gt;@abstractmethod&lt;/p&gt;&lt;p style=&quot;border-color: var(--border-color); margin: 0px 0px 0px 4px;&quot;&gt;+ get_img() -&amp;gt; np.ndarray | None&lt;/p&gt;&lt;p style=&quot;border-color: var(--border-color); margin: 0px 0px 0px 4px;&quot;&gt;&lt;br&gt;&lt;/p&gt;&lt;p style=&quot;border-color: var(--border-color); margin: 0px 0px 0px 4px;&quot;&gt;@abstractmethod&lt;/p&gt;&lt;p style=&quot;border-color: var(--border-color); margin: 0px 0px 0px 4px;&quot;&gt;+ get_pcd() -&amp;gt; np.ndarray | None&lt;/p&gt;&lt;p style=&quot;border-color: var(--border-color); margin: 0px 0px 0px 4px;&quot;&gt;&lt;br&gt;&lt;/p&gt;&lt;p style=&quot;border-color: var(--border-color); margin: 0px 0px 0px 4px;&quot;&gt;@abstractmethod&lt;/p&gt;&lt;p style=&quot;border-color: var(--border-color); margin: 0px 0px 0px 4px;&quot;&gt;+ get_texture_img() -&amp;gt; np.ndarray | None&lt;/p&gt;" style="verticalAlign=top;align=left;overflow=fill;fontSize=12;fontFamily=Helvetica;html=1;whiteSpace=wrap;" vertex="1" parent="1">
          <mxGeometry x="350" y="970" width="250" height="290" as="geometry" />
        </mxCell>
        <mxCell id="5Lx53EyEU3FaDKCMBaVy-57" style="edgeStyle=orthogonalEdgeStyle;rounded=0;orthogonalLoop=1;jettySize=auto;html=1;exitX=0.5;exitY=0;exitDx=0;exitDy=0;entryX=0.25;entryY=1;entryDx=0;entryDy=0;endArrow=block;endFill=0;" edge="1" parent="1" source="5Lx53EyEU3FaDKCMBaVy-52" target="5Lx53EyEU3FaDKCMBaVy-48">
          <mxGeometry relative="1" as="geometry" />
        </mxCell>
        <mxCell id="5Lx53EyEU3FaDKCMBaVy-52" value="EnsensoRGB" style="swimlane;fontStyle=1;align=center;verticalAlign=top;childLayout=stackLayout;horizontal=1;startSize=26;horizontalStack=0;resizeParent=1;resizeParentMax=0;resizeLast=0;collapsible=1;marginBottom=0;whiteSpace=wrap;html=1;" vertex="1" parent="1">
          <mxGeometry x="190" y="1430" width="250" height="308" as="geometry" />
        </mxCell>
        <mxCell id="5Lx53EyEU3FaDKCMBaVy-53" value="+ has_img == True&lt;br&gt;+ is_rgb == True&lt;br&gt;+ has_pcd == True&lt;br&gt;+ has_texture_img == True" style="text;strokeColor=none;fillColor=none;align=left;verticalAlign=top;spacingLeft=4;spacingRight=4;overflow=hidden;rotatable=0;points=[[0,0.5],[1,0.5]];portConstraint=eastwest;whiteSpace=wrap;html=1;" vertex="1" parent="5Lx53EyEU3FaDKCMBaVy-52">
          <mxGeometry y="26" width="250" height="84" as="geometry" />
        </mxCell>
        <mxCell id="5Lx53EyEU3FaDKCMBaVy-54" value="" style="line;strokeWidth=1;fillColor=none;align=left;verticalAlign=middle;spacingTop=-1;spacingLeft=3;spacingRight=3;rotatable=0;labelPosition=right;points=[];portConstraint=eastwest;strokeColor=inherit;" vertex="1" parent="5Lx53EyEU3FaDKCMBaVy-52">
          <mxGeometry y="110" width="250" height="8" as="geometry" />
        </mxCell>
        <mxCell id="5Lx53EyEU3FaDKCMBaVy-55" value="&lt;p style=&quot;border-color: var(--border-color); margin: 0px 0px 0px 4px;&quot;&gt;+ def setup() -&amp;gt; None&lt;/p&gt;&lt;p style=&quot;border-color: var(--border-color); margin: 0px 0px 0px 4px;&quot;&gt;&lt;br style=&quot;border-color: var(--border-color);&quot;&gt;&lt;/p&gt;&lt;p style=&quot;border-color: var(--border-color); margin: 0px 0px 0px 4px;&quot;&gt;+ def execute() -&amp;gt; dict&lt;/p&gt;&lt;p style=&quot;border-color: var(--border-color); margin: 0px 0px 0px 4px;&quot;&gt;&lt;br style=&quot;border-color: var(--border-color);&quot;&gt;&lt;/p&gt;&lt;p style=&quot;border-color: var(--border-color); margin: 0px 0px 0px 4px;&quot;&gt;+ def teardown() -&amp;gt; None&lt;/p&gt;&lt;p style=&quot;border-color: var(--border-color); margin: 0px 0px 0px 4px;&quot;&gt;&lt;br style=&quot;border-color: var(--border-color);&quot;&gt;&lt;/p&gt;&lt;p style=&quot;border-color: var(--border-color); margin: 0px 0px 0px 4px;&quot;&gt;+ def connect() -&amp;gt; None&lt;br style=&quot;border-color: var(--border-color);&quot;&gt;&lt;br style=&quot;border-color: var(--border-color);&quot;&gt;+ def disconnect() -&amp;gt; None&lt;/p&gt;&lt;p style=&quot;border-color: var(--border-color); margin: 0px 0px 0px 4px;&quot;&gt;&lt;br&gt;&lt;/p&gt;&lt;p style=&quot;border-color: var(--border-color); margin: 0px 0px 0px 4px;&quot;&gt;+ def capture() -&amp;gt; img, pcd, texture_img&lt;/p&gt;" style="text;strokeColor=none;fillColor=none;align=left;verticalAlign=top;spacingLeft=4;spacingRight=4;overflow=hidden;rotatable=0;points=[[0,0.5],[1,0.5]];portConstraint=eastwest;whiteSpace=wrap;html=1;" vertex="1" parent="5Lx53EyEU3FaDKCMBaVy-52">
          <mxGeometry y="118" width="250" height="190" as="geometry" />
        </mxCell>
        <mxCell id="5Lx53EyEU3FaDKCMBaVy-58" value="EnsensoBW" style="swimlane;fontStyle=1;align=center;verticalAlign=top;childLayout=stackLayout;horizontal=1;startSize=26;horizontalStack=0;resizeParent=1;resizeParentMax=0;resizeLast=0;collapsible=1;marginBottom=0;whiteSpace=wrap;html=1;" vertex="1" parent="1">
          <mxGeometry x="510" y="1430" width="250" height="308" as="geometry" />
        </mxCell>
        <mxCell id="5Lx53EyEU3FaDKCMBaVy-59" value="+ has_img == True&lt;br&gt;+ is_rgb == False&lt;br&gt;+ has_pcd == True&lt;br&gt;+ has_texture_img == True" style="text;strokeColor=none;fillColor=none;align=left;verticalAlign=top;spacingLeft=4;spacingRight=4;overflow=hidden;rotatable=0;points=[[0,0.5],[1,0.5]];portConstraint=eastwest;whiteSpace=wrap;html=1;" vertex="1" parent="5Lx53EyEU3FaDKCMBaVy-58">
          <mxGeometry y="26" width="250" height="84" as="geometry" />
        </mxCell>
        <mxCell id="5Lx53EyEU3FaDKCMBaVy-60" value="" style="line;strokeWidth=1;fillColor=none;align=left;verticalAlign=middle;spacingTop=-1;spacingLeft=3;spacingRight=3;rotatable=0;labelPosition=right;points=[];portConstraint=eastwest;strokeColor=inherit;" vertex="1" parent="5Lx53EyEU3FaDKCMBaVy-58">
          <mxGeometry y="110" width="250" height="8" as="geometry" />
        </mxCell>
        <mxCell id="5Lx53EyEU3FaDKCMBaVy-61" value="&lt;p style=&quot;border-color: var(--border-color); margin: 0px 0px 0px 4px;&quot;&gt;+ def setup() -&amp;gt; None&lt;/p&gt;&lt;p style=&quot;border-color: var(--border-color); margin: 0px 0px 0px 4px;&quot;&gt;&lt;br style=&quot;border-color: var(--border-color);&quot;&gt;&lt;/p&gt;&lt;p style=&quot;border-color: var(--border-color); margin: 0px 0px 0px 4px;&quot;&gt;+ def execute() -&amp;gt; dict&lt;/p&gt;&lt;p style=&quot;border-color: var(--border-color); margin: 0px 0px 0px 4px;&quot;&gt;&lt;br style=&quot;border-color: var(--border-color);&quot;&gt;&lt;/p&gt;&lt;p style=&quot;border-color: var(--border-color); margin: 0px 0px 0px 4px;&quot;&gt;+ def teardown() -&amp;gt; None&lt;/p&gt;&lt;p style=&quot;border-color: var(--border-color); margin: 0px 0px 0px 4px;&quot;&gt;&lt;br style=&quot;border-color: var(--border-color);&quot;&gt;&lt;/p&gt;&lt;p style=&quot;border-color: var(--border-color); margin: 0px 0px 0px 4px;&quot;&gt;+ def connect() -&amp;gt; None&lt;br style=&quot;border-color: var(--border-color);&quot;&gt;&lt;br style=&quot;border-color: var(--border-color);&quot;&gt;+ def disconnect() -&amp;gt; None&lt;/p&gt;&lt;p style=&quot;border-color: var(--border-color); margin: 0px 0px 0px 4px;&quot;&gt;&lt;br&gt;&lt;/p&gt;&lt;p style=&quot;border-color: var(--border-color); margin: 0px 0px 0px 4px;&quot;&gt;+ def capture() -&amp;gt; img, pcd, texture_img&lt;/p&gt;" style="text;strokeColor=none;fillColor=none;align=left;verticalAlign=top;spacingLeft=4;spacingRight=4;overflow=hidden;rotatable=0;points=[[0,0.5],[1,0.5]];portConstraint=eastwest;whiteSpace=wrap;html=1;" vertex="1" parent="5Lx53EyEU3FaDKCMBaVy-58">
          <mxGeometry y="118" width="250" height="190" as="geometry" />
        </mxCell>
        <mxCell id="5Lx53EyEU3FaDKCMBaVy-62" style="edgeStyle=orthogonalEdgeStyle;rounded=0;orthogonalLoop=1;jettySize=auto;html=1;exitX=0.5;exitY=0;exitDx=0;exitDy=0;entryX=0.68;entryY=1;entryDx=0;entryDy=0;entryPerimeter=0;endArrow=block;endFill=0;" edge="1" parent="1" source="5Lx53EyEU3FaDKCMBaVy-58" target="5Lx53EyEU3FaDKCMBaVy-48">
          <mxGeometry relative="1" as="geometry" />
        </mxCell>
        <mxCell id="5Lx53EyEU3FaDKCMBaVy-66" value="&lt;p style=&quot;margin:0px;margin-top:4px;text-align:center;&quot;&gt;&lt;i&gt;&amp;lt;&amp;lt;abstract&amp;gt;&amp;gt;&lt;/i&gt;&lt;br&gt;&lt;b&gt;ModeSelection&lt;/b&gt;&lt;/p&gt;&lt;hr size=&quot;1&quot;&gt;&lt;p style=&quot;margin:0px;margin-left:4px;&quot;&gt;&lt;br&gt;&lt;/p&gt;&lt;hr size=&quot;1&quot;&gt;&lt;p style=&quot;border-color: var(--border-color); margin: 0px 0px 0px 4px;&quot;&gt;@ abstractmethod&lt;/p&gt;&lt;p style=&quot;border-color: var(--border-color); margin: 0px 0px 0px 4px;&quot;&gt;+ def predict_modes(inputs) -&amp;gt; dict&lt;/p&gt;&lt;p style=&quot;border-color: var(--border-color); margin: 0px 0px 0px 4px;&quot;&gt;&lt;span style=&quot;white-space: pre;&quot;&gt;&#x9;&lt;/span&gt;- pick_id to pose mapping&lt;br&gt;&lt;/p&gt;" style="verticalAlign=top;align=left;overflow=fill;fontSize=12;fontFamily=Helvetica;html=1;whiteSpace=wrap;" vertex="1" parent="1">
          <mxGeometry x="1040" y="960" width="250" height="180" as="geometry" />
        </mxCell>
        <mxCell id="5Lx53EyEU3FaDKCMBaVy-67" value="&lt;p style=&quot;margin:0px;margin-top:4px;text-align:center;&quot;&gt;&lt;i&gt;&amp;lt;&amp;lt;Interface&amp;gt;&amp;gt;&lt;/i&gt;&lt;br&gt;&lt;b&gt;Subject&lt;/b&gt;&lt;/p&gt;&lt;hr size=&quot;1&quot;&gt;&lt;p style=&quot;margin:0px;margin-left:4px;&quot;&gt;&lt;br&gt;&lt;/p&gt;&lt;hr size=&quot;1&quot;&gt;&lt;p style=&quot;margin:0px;margin-left:4px;&quot;&gt;@abstractmethod&lt;br&gt;&lt;/p&gt;&lt;p style=&quot;margin:0px;margin-left:4px;&quot;&gt;+ def connect() -&amp;gt; None&lt;br&gt;&lt;br&gt;&lt;br&gt;@abstractmethod&lt;br&gt;+ def disconnect() -&amp;gt; None&lt;br&gt;&lt;br&gt;&lt;/p&gt;" style="verticalAlign=top;align=left;overflow=fill;fontSize=12;fontFamily=Helvetica;html=1;whiteSpace=wrap;" vertex="1" parent="1">
          <mxGeometry x="1030" y="740" width="190" height="180" as="geometry" />
        </mxCell>
      </root>
    </mxGraphModel>
  </diagram>
</mxfile>
